<svg xmlns="http://www.w3.org/2000/svg" xmlns:xlink="http://www.w3.org/1999/xlink" width="1080" zoomAndPan="magnify" viewBox="0 0 810 809.999993" height="1080" preserveAspectRatio="xMidYMid meet" version="1.0"><defs><g/></defs><g fill="#f4f0c8" fill-opacity="1"><g transform="translate(50.456161, 590.054896)"><g><path d="M 44.328125 -352.203125 L 153.9375 -352.203125 C 203.882812 -352.203125 240.140625 -345.09375 262.703125 -330.875 C 285.273438 -316.664062 296.5625 -294.0625 296.5625 -263.0625 C 296.5625 -242.03125 291.617188 -224.765625 281.734375 -211.265625 C 271.859375 -197.773438 258.726562 -189.664062 242.34375 -186.9375 L 242.34375 -184.53125 C 264.675781 -179.550781 280.78125 -170.234375 290.65625 -156.578125 C 300.53125 -142.929688 305.46875 -124.785156 305.46875 -102.140625 C 305.46875 -70.023438 293.863281 -44.972656 270.65625 -26.984375 C 247.445312 -8.992188 215.929688 0 176.109375 0 L 44.328125 0 Z M 119 -212.71875 L 162.375 -212.71875 C 182.601562 -212.71875 197.253906 -215.847656 206.328125 -222.109375 C 215.410156 -228.378906 219.953125 -238.738281 219.953125 -253.1875 C 219.953125 -266.675781 215.007812 -276.351562 205.125 -282.21875 C 195.25 -288.082031 179.632812 -291.015625 158.28125 -291.015625 L 119 -291.015625 Z M 119 -153.453125 L 119 -61.671875 L 167.671875 -61.671875 C 188.222656 -61.671875 203.394531 -65.601562 213.1875 -73.46875 C 222.988281 -81.34375 227.890625 -93.390625 227.890625 -109.609375 C 227.890625 -138.835938 207.015625 -153.453125 165.265625 -153.453125 Z M 119 -153.453125 "/></g></g></g><g fill="#f4f0c8" fill-opacity="1"><g transform="translate(381.895112, 590.054896)"><g><path d="M 332.9375 0 L 258.484375 0 L 258.484375 -152.015625 L 119 -152.015625 L 119 0 L 44.328125 0 L 44.328125 -352.203125 L 119 -352.203125 L 119 -214.171875 L 258.484375 -214.171875 L 258.484375 -352.203125 L 332.9375 -352.203125 Z M 332.9375 0 "/></g></g></g></svg>